<svg width="424" height="424" viewBox="0 0 424 424" fill="none" xmlns="http://www.w3.org/2000/svg">
<circle cx="212" cy="212" r="211.5" fill="white" stroke="black"/>
<mask id="path-2-inside-1" fill="white">
<path d="M424 212C424 160.567 405.302 110.888 371.39 72.2187C337.478 33.5494 290.664 8.52704 239.672 1.81369C188.679 -4.89966 136.984 7.15382 94.2191 35.7284C51.4542 64.303 20.5356 107.45 7.22373 157.13C-6.0881 206.811 -0.885237 259.636 21.863 305.765C44.6112 351.894 83.3532 388.18 130.871 407.862C178.389 427.545 231.442 429.282 280.145 412.749C328.849 396.217 369.881 362.542 395.597 318L212 212H424Z"/>
</mask>
<path d="M424 212C424 160.567 405.302 110.888 371.39 72.2187C337.478 33.5494 290.664 8.52704 239.672 1.81369C188.679 -4.89966 136.984 7.15382 94.2191 35.7284C51.4542 64.303 20.5356 107.45 7.22373 157.13C-6.0881 206.811 -0.885237 259.636 21.863 305.765C44.6112 351.894 83.3532 388.18 130.871 407.862C178.389 427.545 231.442 429.282 280.145 412.749C328.849 396.217 369.881 362.542 395.597 318L212 212H424Z" fill="white" stroke="black" stroke-width="2" mask="url(#path-2-inside-1)"/>
<mask id="path-3-inside-2" fill="white">
<path d="M424 212C424 165.332 408.601 119.967 380.191 82.9426C351.781 45.918 311.948 19.3024 266.87 7.22373C221.791 -4.85496 173.987 -1.72171 130.871 16.1375C87.7551 33.9968 51.7368 65.5839 28.4026 106C5.06839 146.416 -4.27777 193.402 1.81369 239.672C7.90514 285.941 29.0938 328.907 62.0934 361.907C95.0929 394.906 138.059 416.095 184.328 422.186C230.598 428.278 277.584 418.932 318 395.597L212 212H424Z"/>
</mask>
<path d="M424 212C424 165.332 408.601 119.967 380.191 82.9426C351.781 45.918 311.948 19.3024 266.87 7.22373C221.791 -4.85496 173.987 -1.72171 130.871 16.1375C87.7551 33.9968 51.7368 65.5839 28.4026 106C5.06839 146.416 -4.27777 193.402 1.81369 239.672C7.90514 285.941 29.0938 328.907 62.0934 361.907C95.0929 394.906 138.059 416.095 184.328 422.186C230.598 428.278 277.584 418.932 318 395.597L212 212H424Z" fill="white" stroke="black" stroke-width="2" mask="url(#path-3-inside-2)"/>
<mask id="path-4-inside-3" fill="white">
<path d="M424 212C424 174.786 414.204 138.228 395.597 106C376.991 73.7719 350.228 47.0095 318 28.4026C285.772 9.79573 249.214 -1.62667e-06 212 0C174.786 1.62667e-06 138.228 9.79573 106 28.4026C73.7719 47.0095 47.0095 73.7719 28.4026 106C9.79572 138.228 -3.25333e-06 174.786 0 212C3.25333e-06 249.214 9.79574 285.772 28.4026 318C47.0095 350.228 73.7719 376.991 106 395.597L212 212H424Z"/>
</mask>
<path d="M424 212C424 174.786 414.204 138.228 395.597 106C376.991 73.7719 350.228 47.0095 318 28.4026C285.772 9.79573 249.214 -1.62667e-06 212 0C174.786 1.62667e-06 138.228 9.79573 106 28.4026C73.7719 47.0095 47.0095 73.7719 28.4026 106C9.79572 138.228 -3.25333e-06 174.786 0 212C3.25333e-06 249.214 9.79574 285.772 28.4026 318C47.0095 350.228 73.7719 376.991 106 395.597L212 212H424Z" fill="white" stroke="black" stroke-width="2" mask="url(#path-4-inside-3)"/>
<mask id="path-5-inside-4" fill="white">
<path d="M424 212C424 174.786 414.204 138.228 395.597 106C376.991 73.7719 350.228 47.0095 318 28.4026C285.772 9.79573 249.214 -1.62667e-06 212 0C174.786 1.62667e-06 138.228 9.79573 106 28.4026L212 212H424Z"/>
</mask>
<path d="M424 212C424 174.786 414.204 138.228 395.597 106C376.991 73.7719 350.228 47.0095 318 28.4026C285.772 9.79573 249.214 -1.62667e-06 212 0C174.786 1.62667e-06 138.228 9.79573 106 28.4026L212 212H424Z" fill="white" stroke="black" stroke-width="2" mask="url(#path-5-inside-4)"/>
<circle cx="212" cy="212" r="187.5" fill="white" stroke="black"/>
<circle cx="212" cy="212" r="163.5" fill="white" stroke="black"/>
<mask id="mask0" mask-type="alpha" maskUnits="userSpaceOnUse" x="130" y="130" width="164" height="164">
<circle cx="212" cy="212" r="81.5" fill="white" stroke="black"/>
</mask>
<g mask="url(#mask0)">
<circle cx="212" cy="212" r="81.5" fill="white" stroke="black"/>
<rect x="200" y="130" width="24" height="82" fill="black"/>
<circle cx="212" cy="212" r="12" fill="black"/>
</g>
</svg>
